<svg width="24" height="22" viewBox="0 0 24 22" fill="none" xmlns="http://www.w3.org/2000/svg">
<path d="M17.5 0C16.3739 0.0175149 15.2724 0.331853 14.3067 0.911271C13.341 1.49069 12.5453 2.31467 12 3.3C11.4546 2.31467 10.6589 1.49069 9.6932 0.911271C8.7275 0.331853 7.62601 0.0175149 6.49996 0C4.7049 0.0779907 3.01366 0.863254 1.79574 2.18423C0.577818 3.50521 -0.0677922 5.25453 -4.17093e-05 7.05C-4.17093e-05 11.597 4.78596 16.563 8.79996 19.93C9.69618 20.6831 10.8293 21.096 12 21.096C13.1706 21.096 14.3037 20.6831 15.2 19.93C19.214 16.563 24 11.597 24 7.05C24.0677 5.25453 23.4221 3.50521 22.2042 2.18423C20.9863 0.863254 19.295 0.0779907 17.5 0Z" fill="white"/>
</svg>
